<?xml version="1.0" encoding="utf-8"?>
<!-- Generator: Adobe Illustrator 19.1.0, SVG Export Plug-In . SVG Version: 6.00 Build 0)  -->
<svg version="1.1" id="Layer_1" xmlns="http://www.w3.org/2000/svg" xmlns:xlink="http://www.w3.org/1999/xlink" x="0px" y="0px"
	 viewBox="-292 384 26 26" style="enable-background:new -292 384 26 26;" xml:space="preserve">
<style type="text/css">
	.st0{fill:#FFFFFF;stroke:#FFFDFD;stroke-width:0.75;stroke-miterlimit:10;}
	.st1{fill:#FF0000;}
	.st2{fill:none;}
</style>
<g>
	<path d="M-281.6,391.3c-4.7,0-8.5,3.8-8.5,8.5s3.8,8.5,8.5,8.5s8.5-3.8,8.5-8.5S-276.9,391.3-281.6,391.3z"/>
	<path class="st0" d="M-281.6,394.3c-3,0-5.5,2.5-5.5,5.5c0,0.3-0.2,0.5-0.5,0.5s-0.5-0.2-0.5-0.5c0-3.6,2.9-6.5,6.5-6.5
		c0.3,0,0.5,0.2,0.5,0.5S-281.3,394.3-281.6,394.3z"/>
	<g>
		<path d="M-270.8,390.2c-1.1-0.5-4.1-1.9-5.3-1.9c-1.3,0-1.7,0.4-2,1.2c-0.1,0.3-0.4,0.4-0.7,0.3c-0.3-0.1-0.4-0.4-0.3-0.7
			c0.4-0.9,1.1-1.8,3-1.8c1.6,0,5.3,1.8,5.7,2.1c0.2,0.1,0.3,0.4,0.2,0.7C-270.3,390.2-270.6,390.3-270.8,390.2z"/>
	</g>
	<path d="M-275.4,390.7c-1.8-1.3-4-1.9-6.2-1.9c-0.2,0-0.4,0.1-0.5,0.3l-0.8,2.5c-0.1,0.2,0,0.3,0.1,0.5c0.1,0.1,0.3,0.2,0.4,0.2
		c1.9-0.2,3.9,0.3,5.4,1.6c0.1,0.1,0.2,0.1,0.3,0.1h0.1c0.2,0,0.3-0.1,0.3-0.3l1-2.4C-275.1,391.1-275.2,390.8-275.4,390.7z"/>
	<g>
		<path class="st1" d="M-270.6,393.3c-0.3,0-0.5-0.2-0.5-0.5v-1c0-0.3,0.2-0.5,0.5-0.5s0.5,0.2,0.5,0.5v1
			C-270.1,393-270.3,393.3-270.6,393.3z"/>
	</g>
	<g>
		<path class="st1" d="M-270.6,388.3c-0.3,0-0.5-0.2-0.5-0.5v-1c0-0.3,0.2-0.5,0.5-0.5s0.5,0.2,0.5,0.5v1
			C-270.1,388-270.3,388.3-270.6,388.3z"/>
	</g>
	<g>
		<path class="st1" d="M-268.5,392.4c-0.1,0-0.3,0-0.4-0.1l-0.7-0.7c-0.2-0.2-0.2-0.5,0-0.7s0.5-0.2,0.7,0l0.7,0.7
			c0.2,0.2,0.2,0.5,0,0.7C-268.2,392.3-268.3,392.4-268.5,392.4z"/>
	</g>
	<g>
		<path class="st1" d="M-267.6,390.3h-1c-0.3,0-0.5-0.2-0.5-0.5s0.2-0.5,0.5-0.5h1c0.3,0,0.5,0.2,0.5,0.5S-267.3,390.3-267.6,390.3z
			"/>
	</g>
	<g>
		<path class="st1" d="M-269.2,388.8c-0.1,0-0.3,0-0.4-0.1c-0.2-0.2-0.2-0.5,0-0.7l0.7-0.7c0.2-0.2,0.5-0.2,0.7,0s0.2,0.5,0,0.7
			l-0.7,0.7C-268.9,388.8-269,388.8-269.2,388.8z"/>
	</g>
	<g>
		<path class="st1" d="M-272.7,392.4c-0.1,0-0.3,0-0.4-0.1c-0.2-0.2-0.2-0.5,0-0.7l0.7-0.7c0.2-0.2,0.5-0.2,0.7,0s0.2,0.5,0,0.7
			l-0.7,0.7C-272.4,392.3-272.6,392.4-272.7,392.4z"/>
	</g>
</g>
<polygon class="st2" points="-268.4,392.6 -270.9,391.4 -272.8,393.4 -273,390.7 -275.7,390.1 -273.4,388.5 -274.3,385.9 
	-271.8,387 -269.9,385 -269.7,387.8 -267,388.4 -269.2,390 "/>
</svg>
